<svg id="visual" viewBox="0 0 960 540" width="960" height="540" xmlns="http://www.w3.org/2000/svg" xmlns:xlink="http://www.w3.org/1999/xlink" version="1.1"><path d="M0 165L32 158.3C64 151.7 128 138.3 192 131.3C256 124.3 320 123.7 384 123.2C448 122.7 512 122.3 576 124.3C640 126.3 704 130.7 768 137.5C832 144.3 896 153.7 928 158.3L960 163L960 0L928 0C896 0 832 0 768 0C704 0 640 0 576 0C512 0 448 0 384 0C320 0 256 0 192 0C128 0 64 0 32 0L0 0Z" fill="#fa7268"></path><path d="M0 126L32 121.8C64 117.7 128 109.3 192 110.5C256 111.7 320 122.3 384 126.7C448 131 512 129 576 128.3C640 127.7 704 128.3 768 129.5C832 130.7 896 132.3 928 133.2L960 134L960 0L928 0C896 0 832 0 768 0C704 0 640 0 576 0C512 0 448 0 384 0C320 0 256 0 192 0C128 0 64 0 32 0L0 0Z" fill="#ef5f67"></path><path d="M0 73L32 77.5C64 82 128 91 192 94C256 97 320 94 384 93.7C448 93.3 512 95.7 576 95.8C640 96 704 94 768 90.8C832 87.7 896 83.3 928 81.2L960 79L960 0L928 0C896 0 832 0 768 0C704 0 640 0 576 0C512 0 448 0 384 0C320 0 256 0 192 0C128 0 64 0 32 0L0 0Z" fill="#e34c67"></path><path d="M0 73L32 71.8C64 70.7 128 68.3 192 68C256 67.7 320 69.3 384 66.5C448 63.7 512 56.3 576 53C640 49.7 704 50.3 768 53C832 55.7 896 60.3 928 62.7L960 65L960 0L928 0C896 0 832 0 768 0C704 0 640 0 576 0C512 0 448 0 384 0C320 0 256 0 192 0C128 0 64 0 32 0L0 0Z" fill="#d53867"></path><path d="M0 39L32 37.3C64 35.7 128 32.3 192 32.5C256 32.7 320 36.3 384 36.3C448 36.3 512 32.7 576 31C640 29.3 704 29.7 768 32.2C832 34.7 896 39.3 928 41.7L960 44L960 0L928 0C896 0 832 0 768 0C704 0 640 0 576 0C512 0 448 0 384 0C320 0 256 0 192 0C128 0 64 0 32 0L0 0Z" fill="#c62368"></path></svg>