<svg id="visual" viewBox="0 0 960 540" width="960" height="540" xmlns="http://www.w3.org/2000/svg" xmlns:xlink="http://www.w3.org/1999/xlink" version="1.1"><path d="M0 373L32 379.7C64 386.3 128 399.7 192 406.7C256 413.7 320 414.3 384 414.8C448 415.3 512 415.7 576 413.7C640 411.7 704 407.3 768 400.5C832 393.7 896 384.3 928 379.7L960 375L960 541L928 541C896 541 832 541 768 541C704 541 640 541 576 541C512 541 448 541 384 541C320 541 256 541 192 541C128 541 64 541 32 541L0 541Z" fill="#fa7268"></path><path d="M0 412L32 416.2C64 420.3 128 428.7 192 427.5C256 426.3 320 415.7 384 411.3C448 407 512 409 576 409.7C640 410.3 704 409.7 768 408.5C832 407.3 896 405.7 928 404.8L960 404L960 541L928 541C896 541 832 541 768 541C704 541 640 541 576 541C512 541 448 541 384 541C320 541 256 541 192 541C128 541 64 541 32 541L0 541Z" fill="#ef5f67"></path><path d="M0 465L32 460.5C64 456 128 447 192 444C256 441 320 444 384 444.3C448 444.7 512 442.3 576 442.2C640 442 704 444 768 447.2C832 450.3 896 454.7 928 456.8L960 459L960 541L928 541C896 541 832 541 768 541C704 541 640 541 576 541C512 541 448 541 384 541C320 541 256 541 192 541C128 541 64 541 32 541L0 541Z" fill="#e34c67"></path><path d="M0 465L32 466.2C64 467.3 128 469.7 192 470C256 470.3 320 468.7 384 471.5C448 474.3 512 481.7 576 485C640 488.3 704 487.7 768 485C832 482.3 896 477.7 928 475.3L960 473L960 541L928 541C896 541 832 541 768 541C704 541 640 541 576 541C512 541 448 541 384 541C320 541 256 541 192 541C128 541 64 541 32 541L0 541Z" fill="#d53867"></path><path d="M0 499L32 500.7C64 502.3 128 505.7 192 505.5C256 505.3 320 501.7 384 501.7C448 501.7 512 505.3 576 507C640 508.7 704 508.3 768 505.8C832 503.3 896 498.7 928 496.3L960 494L960 541L928 541C896 541 832 541 768 541C704 541 640 541 576 541C512 541 448 541 384 541C320 541 256 541 192 541C128 541 64 541 32 541L0 541Z" fill="#c62368"></path></svg>